ffmpeg started on 2025-05-28 at 10:19:34
Report written to "D:\Convert\FFMetrics\reports\ssim_report-6.txt"
Log level: 32
Command line:
ffmpeg -hide_banner -nostdin -i "G:\\\xc0\xed\xe8\xec\xe5\\\xce\xed\xe3\xee\xe8\xed\xe3\xe8\\!_36_\xce\xf1\xe5\xed\xfc_2024\\JamClub\\MF \xcf\xf0\xe8\xe7\xf0\xe0\xea\\\xd2\xc2-1\\[JAMCLUB] MF Ghost - 03 (1080p)_HEVC.mkv" -i "G:\\\xc0\xed\xe8\xec\xe5\\\xce\xed\xe3\xee\xe8\xed\xe3\xe8\\!_36_\xce\xf1\xe5\xed\xfc_2024\\JamClub\\MF \xcf\xf0\xe8\xe7\xf0\xe0\xea\\\xd2\xc2-1\\[JAMCLUB] MF Ghost - 03 (1080p).mp4" -lavfi "[0:v]settb=AVTB,setpts=PTS-STARTPTS,format=pix_fmts=yuv420p10,fps=24000/1001,scale=1920:1080:flags=bicubic[main];[1:v]settb=AVTB,setpts=PTS-STARTPTS,format=pix_fmts=yuv420p,fps=24000/1001,scale=1920:1080:flags=bicubic[ref];[main][ref]ssim=eof_action=endall:stats_file='D\\:/Convert/FFMetrics/logs/ssim_logfile-6.txt'" -f null -
Input #0, matroska,webm, from 'G:\Аниме\Онгоинги\!_36_Осень_2024\JamClub\MF Призрак\ТВ-1\[JAMCLUB] MF Ghost - 03 (1080p)_HEVC.mkv':
  Metadata:
    COMPATIBLE_BRANDS: isomiso2avc1mp41
    MAJOR_BRAND     : isom
    MINOR_VERSION   : 512
    ENCODER         : Lavf61.7.100
  Duration: 00:24:02.39, start: -0.021000, bitrate: 2148 kb/s
  Stream #0:0: Video: hevc (Main 10), yuv420p10le(tv, bt709, progressive), 1920x1080 [SAR 1:1 DAR 16:9], 23.98 fps, 23.98 tbr, 1k tbn (default)
      Metadata:
        HANDLER_NAME    : VideoHandler
        VENDOR_ID       : [0][0][0][0]
        ENCODER         : Lavc61.19.100 libx265
        BPS             : 1949944
        DURATION        : 00:24:02.273708333
        NUMBER_OF_FRAMES: 34580
        NUMBER_OF_BYTES : 351543974
        _STATISTICS_WRITING_APP: mkvpropedit v66.0.0 ('Josie') 64-bit
        _STATISTICS_WRITING_DATE_UTC: 2025-05-27 07:56:13
        _STATISTICS_TAGS: BPS DURATION NUMBER_OF_FRAMES NUMBER_OF_BYTES
  Stream #0:1: Audio: aac (LC), 48000 Hz, stereo, fltp (default)
      Metadata:
        HANDLER_NAME    : SoundHandler
        VENDOR_ID       : [0][0][0][0]
        ENCODER         : Lavc61.19.100 aac
        BPS             : 194785
        DURATION        : 00:24:02.368000000
        NUMBER_OF_FRAMES: 67612
        NUMBER_OF_BYTES : 35119116
        _STATISTICS_WRITING_APP: mkvpropedit v66.0.0 ('Josie') 64-bit
        _STATISTICS_WRITING_DATE_UTC: 2025-05-27 07:56:13
        _STATISTICS_TAGS: BPS DURATION NUMBER_OF_FRAMES NUMBER_OF_BYTES
Input #1, mov,mp4,m4a,3gp,3g2,mj2, from 'G:\Аниме\Онгоинги\!_36_Осень_2024\JamClub\MF Призрак\ТВ-1\[JAMCLUB] MF Ghost - 03 (1080p).mp4':
  Metadata:
    major_brand     : isom
    minor_version   : 512
    compatible_brands: isomiso2avc1mp41
    encoder         : Lavf60.10.100
  Duration: 00:24:02.37, start: 0.000000, bitrate: 5163 kb/s
  Stream #1:0[0x1](und): Video: h264 (High) (avc1 / 0x31637661), yuv420p(tv, bt709, progressive), 1920x1080 [SAR 1:1 DAR 16:9], 4902 kb/s, 23.98 fps, 23.98 tbr, 24k tbn (default)
      Metadata:
        handler_name    : VideoHandler
        vendor_id       : [0][0][0][0]
        encoder         : Lavc60.23.100 h264_nvenc
  Stream #1:1[0x2](und): Audio: aac (LC) (mp4a / 0x6134706D), 48000 Hz, stereo, fltp, 256 kb/s (default)
      Metadata:
        handler_name    : SoundHandler
        vendor_id       : [0][0][0][0]
Stream mapping:
  Stream #0:0 (hevc) -> settb:default
  Stream #1:0 (h264) -> settb:default
  ssim:default -> Stream #0:0 (wrapped_avframe)
  Stream #0:1 -> #0:1 (aac (native) -> pcm_s16le (native))
Output #0, null, to 'pipe:':
  Metadata:
    COMPATIBLE_BRANDS: isomiso2avc1mp41
    MAJOR_BRAND     : isom
    MINOR_VERSION   : 512
    encoder         : Lavf61.7.100
  Stream #0:0: Video: wrapped_avframe, yuv420p10le(tv, bt709, progressive), 1920x1080 [SAR 1:1 DAR 16:9], q=2-31, 200 kb/s, 23.98 fps, 23.98 tbn
      Metadata:
        encoder         : Lavc61.19.100 wrapped_avframe
  Stream #0:1: Audio: pcm_s16le, 48000 Hz, stereo, s16, 1536 kb/s (default)
      Metadata:
        HANDLER_NAME    : SoundHandler
        VENDOR_ID       : [0][0][0][0]
        _STATISTICS_TAGS: BPS DURATION NUMBER_OF_FRAMES NUMBER_OF_BYTES
        BPS             : 194785
        DURATION        : 00:24:02.368000000
        NUMBER_OF_FRAMES: 67612
        NUMBER_OF_BYTES : 35119116
        _STATISTICS_WRITING_APP: mkvpropedit v66.0.0 ('Josie') 64-bit
        _STATISTICS_WRITING_DATE_UTC: 2025-05-27 07:56:13
        encoder         : Lavc61.19.100 pcm_s16le
frame=  121 fps=0.0 q=-0.0 size=N/A time=00:00:05.04 bitrate=N/A speed=9.66x    frame=  284 fps=276 q=-0.0 size=N/A time=00:00:11.84 bitrate=N/A speed=11.5x    frame=  499 fps=321 q=-0.0 size=N/A time=00:00:20.81 bitrate=N/A speed=13.4x    frame=  721 fps=347 q=-0.0 size=N/A time=00:00:30.07 bitrate=N/A speed=14.5x    frame=  898 fps=347 q=-0.0 size=N/A time=00:00:37.45 bitrate=N/A speed=14.5x    frame= 1132 fps=366 q=-0.0 size=N/A time=00:00:47.21 bitrate=N/A speed=15.3x    frame= 1344 fps=371 q=-0.0 size=N/A time=00:00:56.05 bitrate=N/A speed=15.5x    frame= 1580 fps=383 q=-0.0 size=N/A time=00:01:05.89 bitrate=N/A speed=  16x    frame= 1773 fps=382 q=-0.0 size=N/A time=00:01:13.94 bitrate=N/A speed=15.9x    frame= 1961 fps=380 q=-0.0 size=N/A time=00:01:21.79 bitrate=N/A speed=15.9x    frame= 2191 fps=386 q=-0.0 size=N/A time=00:01:31.38 bitrate=N/A speed=16.1x    frame= 2432 fps=392 q=-0.0 size=N/A time=00:01:41.43 bitrate=N/A speed=16.4x    frame= 2609 fps=389 q=-0.0 size=N/A time=00:01:48.81 bitrate=N/A speed=16.2x    frame= 2750 fps=380 q=-0.0 size=N/A time=00:01:54.69 bitrate=N/A speed=15.9x    frame= 2887 fps=373 q=-0.0 size=N/A time=00:02:00.41 bitrate=N/A speed=15.6x    frame= 3098 fps=375 q=-0.0 size=N/A time=00:02:09.21 bitrate=N/A speed=15.6x    frame= 3281 fps=374 q=-0.0 size=N/A time=00:02:16.84 bitrate=N/A speed=15.6x    frame= 3446 fps=370 q=-0.0 size=N/A time=00:02:23.72 bitrate=N/A speed=15.4x    frame= 3590 fps=366 q=-0.0 size=N/A time=00:02:29.73 bitrate=N/A speed=15.3x    frame= 3779 fps=366 q=-0.0 size=N/A time=00:02:37.61 bitrate=N/A speed=15.2x    frame= 3947 fps=363 q=-0.0 size=N/A time=00:02:44.62 bitrate=N/A speed=15.2x    frame= 4108 fps=361 q=-0.0 size=N/A time=00:02:51.33 bitrate=N/A speed=15.1x    frame= 4249 fps=357 q=-0.0 size=N/A time=00:02:57.21 bitrate=N/A speed=14.9x    frame= 4400 fps=355 q=-0.0 size=N/A time=00:03:03.51 bitrate=N/A speed=14.8x    frame= 4547 fps=352 q=-0.0 size=N/A time=00:03:09.64 bitrate=N/A speed=14.7x    frame= 4711 fps=351 q=-0.0 size=N/A time=00:03:16.48 bitrate=N/A speed=14.6x    frame= 4887 fps=350 q=-0.0 size=N/A time=00:03:23.82 bitrate=N/A speed=14.6x    frame= 5054 fps=350 q=-0.0 size=N/A time=00:03:30.79 bitrate=N/A speed=14.6x    frame= 5250 fps=350 q=-0.0 size=N/A time=00:03:38.96 bitrate=N/A speed=14.6x    frame= 5457 fps=352 q=-0.0 size=N/A time=00:03:47.60 bitrate=N/A speed=14.7x    frame= 5644 fps=353 q=-0.0 size=N/A time=00:03:55.40 bitrate=N/A speed=14.7x    frame= 5851 fps=354 q=-0.0 size=N/A time=00:04:04.03 bitrate=N/A speed=14.8x    frame= 6093 fps=358 q=-0.0 size=N/A time=00:04:14.12 bitrate=N/A speed=14.9x    frame= 6308 fps=359 q=-0.0 size=N/A time=00:04:23.09 bitrate=N/A speed=  15x    frame= 6530 fps=361 q=-0.0 size=N/A time=00:04:32.35 bitrate=N/A speed=15.1x    frame= 6789 fps=365 q=-0.0 size=N/A time=00:04:43.15 bitrate=N/A speed=15.2x    frame= 7037 fps=368 q=-0.0 size=N/A time=00:04:53.50 bitrate=N/A speed=15.4x    frame= 7299 fps=372 q=-0.0 size=N/A time=00:05:04.42 bitrate=N/A speed=15.5x    frame= 7587 fps=377 q=-0.0 size=N/A time=00:05:16.44 bitrate=N/A speed=15.7x    frame= 7810 fps=378 q=-0.0 size=N/A time=00:05:25.74 bitrate=N/A speed=15.8x    frame= 8083 fps=382 q=-0.0 size=N/A time=00:05:37.12 bitrate=N/A speed=15.9x    frame= 8362 fps=386 q=-0.0 size=N/A time=00:05:48.76 bitrate=N/A speed=16.1x    frame= 8602 fps=388 q=-0.0 size=N/A time=00:05:58.77 bitrate=N/A speed=16.2x    frame= 8822 fps=388 q=-0.0 size=N/A time=00:06:07.95 bitrate=N/A speed=16.2x    frame= 9004 fps=388 q=-0.0 size=N/A time=00:06:15.54 bitrate=N/A speed=16.2x    frame= 9206 fps=388 q=-0.0 size=N/A time=00:06:23.96 bitrate=N/A speed=16.2x    frame= 9378 fps=387 q=-0.0 size=N/A time=00:06:31.14 bitrate=N/A speed=16.1x    frame= 9589 fps=387 q=-0.0 size=N/A time=00:06:39.94 bitrate=N/A speed=16.1x    frame= 9850 fps=389 q=-0.0 size=N/A time=00:06:50.82 bitrate=N/A speed=16.2x    frame=10084 fps=391 q=-0.0 size=N/A time=00:07:00.58 bitrate=N/A speed=16.3x    frame=10327 fps=392 q=-0.0 size=N/A time=00:07:10.72 bitrate=N/A speed=16.4x    frame=10562 fps=394 q=-0.0 size=N/A time=00:07:20.52 bitrate=N/A speed=16.4x    frame=10852 fps=397 q=-0.0 size=N/A time=00:07:32.61 bitrate=N/A speed=16.5x    frame=11050 fps=397 q=-0.0 size=N/A time=00:07:40.87 bitrate=N/A speed=16.5x    frame=11250 fps=396 q=-0.0 size=N/A time=00:07:49.21 bitrate=N/A speed=16.5x    frame=11446 fps=396 q=-0.0 size=N/A time=00:07:57.39 bitrate=N/A speed=16.5x    frame=11656 fps=396 q=-0.0 size=N/A time=00:08:06.15 bitrate=N/A speed=16.5x    frame=11841 fps=396 q=-0.0 size=N/A time=00:08:13.86 bitrate=N/A speed=16.5x    frame=12033 fps=395 q=-0.0 size=N/A time=00:08:21.87 bitrate=N/A speed=16.5x    frame=12291 fps=397 q=-0.0 size=N/A time=00:08:32.63 bitrate=N/A speed=16.6x    frame=12546 fps=399 q=-0.0 size=N/A time=00:08:43.27 bitrate=N/A speed=16.6x    frame=12746 fps=398 q=-0.0 size=N/A time=00:08:51.61 bitrate=N/A speed=16.6x    frame=12964 fps=399 q=-0.0 size=N/A time=00:09:00.70 bitrate=N/A speed=16.6x    frame=13145 fps=398 q=-0.0 size=N/A time=00:09:08.25 bitrate=N/A speed=16.6x    frame=13303 fps=397 q=-0.0 size=N/A time=00:09:14.84 bitrate=N/A speed=16.5x    frame=13420 fps=394 q=-0.0 size=N/A time=00:09:19.72 bitrate=N/A speed=16.4x    frame=13578 fps=393 q=-0.0 size=N/A time=00:09:26.31 bitrate=N/A speed=16.4x    frame=13738 fps=392 q=-0.0 size=N/A time=00:09:32.98 bitrate=N/A speed=16.3x    frame=13909 fps=391 q=-0.0 size=N/A time=00:09:40.12 bitrate=N/A speed=16.3x    frame=14116 fps=391 q=-0.0 size=N/A time=00:09:48.75 bitrate=N/A speed=16.3x    frame=14305 fps=391 q=-0.0 size=N/A time=00:09:56.63 bitrate=N/A speed=16.3x    frame=14511 fps=391 q=-0.0 size=N/A time=00:10:05.22 bitrate=N/A speed=16.3x    frame=14715 fps=391 q=-0.0 size=N/A time=00:10:13.73 bitrate=N/A speed=16.3x    frame=14963 fps=392 q=-0.0 size=N/A time=00:10:24.08 bitrate=N/A speed=16.3x    frame=15134 fps=391 q=-0.0 size=N/A time=00:10:31.21 bitrate=N/A speed=16.3x    frame=15322 fps=391 q=-0.0 size=N/A time=00:10:39.05 bitrate=N/A speed=16.3x    frame=15520 fps=391 q=-0.0 size=N/A time=00:10:47.31 bitrate=N/A speed=16.3x    frame=15695 fps=390 q=-0.0 size=N/A time=00:10:54.61 bitrate=N/A speed=16.3x    frame=15886 fps=390 q=-0.0 size=N/A time=00:11:02.57 bitrate=N/A speed=16.3x    frame=16160 fps=391 q=-0.0 size=N/A time=00:11:14.00 bitrate=N/A speed=16.3x    frame=16342 fps=391 q=-0.0 size=N/A time=00:11:21.59 bitrate=N/A speed=16.3x    frame=16544 fps=391 q=-0.0 size=N/A time=00:11:30.02 bitrate=N/A speed=16.3x    frame=16734 fps=391 q=-0.0 size=N/A time=00:11:37.94 bitrate=N/A speed=16.3x    frame=16925 fps=391 q=-0.0 size=N/A time=00:11:45.91 bitrate=N/A speed=16.3x    frame=17111 fps=390 q=-0.0 size=N/A time=00:11:53.67 bitrate=N/A speed=16.3x    frame=17364 fps=391 q=-0.0 size=N/A time=00:12:04.22 bitrate=N/A speed=16.3x    frame=17612 fps=392 q=-0.0 size=N/A time=00:12:14.56 bitrate=N/A speed=16.4x    frame=17813 fps=392 q=-0.0 size=N/A time=00:12:22.95 bitrate=N/A speed=16.4x    frame=17985 fps=392 q=-0.0 size=N/A time=00:12:30.12 bitrate=N/A speed=16.3x    frame=18224 fps=393 q=-0.0 size=N/A time=00:12:40.09 bitrate=N/A speed=16.4x    frame=18497 fps=394 q=-0.0 size=N/A time=00:12:51.47 bitrate=N/A speed=16.4x    frame=18720 fps=395 q=-0.0 size=N/A time=00:13:00.78 bitrate=N/A speed=16.5x    frame=18937 fps=395 q=-0.0 size=N/A time=00:13:09.83 bitrate=N/A speed=16.5x    frame=19192 fps=396 q=-0.0 size=N/A time=00:13:20.46 bitrate=N/A speed=16.5x    frame=19456 fps=397 q=-0.0 size=N/A time=00:13:31.47 bitrate=N/A speed=16.6x    frame=19720 fps=398 q=-0.0 size=N/A time=00:13:42.48 bitrate=N/A speed=16.6x    frame=19992 fps=400 q=-0.0 size=N/A time=00:13:53.83 bitrate=N/A speed=16.7x    frame=20226 fps=400 q=-0.0 size=N/A time=00:14:03.59 bitrate=N/A speed=16.7x    frame=20452 fps=400 q=-0.0 size=N/A time=00:14:13.06 bitrate=N/A speed=16.7x    frame=20704 fps=401 q=-0.0 size=N/A time=00:14:23.52 bitrate=N/A speed=16.7x    frame=20970 fps=402 q=-0.0 size=N/A time=00:14:34.62 bitrate=N/A speed=16.8x    frame=21204 fps=403 q=-0.0 size=N/A time=00:14:44.38 bitrate=N/A speed=16.8x    frame=21413 fps=403 q=-0.0 size=N/A time=00:14:53.10 bitrate=N/A speed=16.8x    frame=21669 fps=404 q=-0.0 size=N/A time=00:15:03.77 bitrate=N/A speed=16.8x    frame=21942 fps=405 q=-0.0 size=N/A time=00:15:15.16 bitrate=N/A speed=16.9x    frame=22223 fps=406 q=-0.0 size=N/A time=00:15:26.88 bitrate=N/A speed=  17x    frame=22495 fps=408 q=-0.0 size=N/A time=00:15:38.22 bitrate=N/A speed=  17x    frame=22763 fps=409 q=-0.0 size=N/A time=00:15:49.40 bitrate=N/A speed=  17x    frame=23013 fps=409 q=-0.0 size=N/A time=00:15:59.83 bitrate=N/A speed=17.1x    frame=23282 fps=410 q=-0.0 size=N/A time=00:16:11.05 bitrate=N/A speed=17.1x    frame=23556 fps=411 q=-0.0 size=N/A time=00:16:22.48 bitrate=N/A speed=17.2x    frame=23797 fps=412 q=-0.0 size=N/A time=00:16:32.53 bitrate=N/A speed=17.2x    frame=24064 fps=413 q=-0.0 size=N/A time=00:16:43.66 bitrate=N/A speed=17.2x    frame=24335 fps=414 q=-0.0 size=N/A time=00:16:54.97 bitrate=N/A speed=17.3x    frame=24612 fps=415 q=-0.0 size=N/A time=00:17:06.52 bitrate=N/A speed=17.3x    frame=24876 fps=416 q=-0.0 size=N/A time=00:17:17.53 bitrate=N/A speed=17.3x    frame=25124 fps=416 q=-0.0 size=N/A time=00:17:27.88 bitrate=N/A speed=17.4x    frame=25402 fps=417 q=-0.0 size=N/A time=00:17:39.47 bitrate=N/A speed=17.4x    frame=25651 fps=418 q=-0.0 size=N/A time=00:17:49.86 bitrate=N/A speed=17.4x    frame=25903 fps=418 q=-0.0 size=N/A time=00:18:00.37 bitrate=N/A speed=17.4x    frame=26131 fps=419 q=-0.0 size=N/A time=00:18:09.88 bitrate=N/A speed=17.5x    frame=26395 fps=419 q=-0.0 size=N/A time=00:18:20.89 bitrate=N/A speed=17.5x    frame=26672 fps=420 q=-0.0 size=N/A time=00:18:32.44 bitrate=N/A speed=17.5x    frame=26939 fps=421 q=-0.0 size=N/A time=00:18:43.58 bitrate=N/A speed=17.6x    frame=27196 fps=422 q=-0.0 size=N/A time=00:18:54.29 bitrate=N/A speed=17.6x    frame=27463 fps=422 q=-0.0 size=N/A time=00:19:05.43 bitrate=N/A speed=17.6x    frame=27696 fps=423 q=-0.0 size=N/A time=00:19:15.15 bitrate=N/A speed=17.6x    frame=27972 fps=424 q=-0.0 size=N/A time=00:19:26.66 bitrate=N/A speed=17.7x    frame=28254 fps=425 q=-0.0 size=N/A time=00:19:38.42 bitrate=N/A speed=17.7x    frame=28464 fps=424 q=-0.0 size=N/A time=00:19:47.18 bitrate=N/A speed=17.7x    frame=28721 fps=425 q=-0.0 size=N/A time=00:19:57.90 bitrate=N/A speed=17.7x    frame=28929 fps=425 q=-0.0 size=N/A time=00:20:06.58 bitrate=N/A speed=17.7x    frame=29133 fps=425 q=-0.0 size=N/A time=00:20:15.08 bitrate=N/A speed=17.7x    frame=29386 fps=425 q=-0.0 size=N/A time=00:20:25.64 bitrate=N/A speed=17.7x    frame=29613 fps=425 q=-0.0 size=N/A time=00:20:35.15 bitrate=N/A speed=17.7x    frame=29884 fps=426 q=-0.0 size=N/A time=00:20:46.41 bitrate=N/A speed=17.8x    frame=30123 fps=426 q=-0.0 size=N/A time=00:20:56.38 bitrate=N/A speed=17.8x    frame=30361 fps=426 q=-0.0 size=N/A time=00:21:06.30 bitrate=N/A speed=17.8x    frame=30610 fps=427 q=-0.0 size=N/A time=00:21:16.69 bitrate=N/A speed=17.8x    frame=30873 fps=427 q=-0.0 size=N/A time=00:21:27.66 bitrate=N/A speed=17.8x    frame=31095 fps=427 q=-0.0 size=N/A time=00:21:36.92 bitrate=N/A speed=17.8x    frame=31340 fps=428 q=-0.0 size=N/A time=00:21:47.13 bitrate=N/A speed=17.8x    frame=31578 fps=428 q=-0.0 size=N/A time=00:21:57.06 bitrate=N/A speed=17.9x    frame=31838 fps=429 q=-0.0 size=N/A time=00:22:07.90 bitrate=N/A speed=17.9x    frame=32088 fps=429 q=-0.0 size=N/A time=00:22:18.33 bitrate=N/A speed=17.9x    frame=32322 fps=429 q=-0.0 size=N/A time=00:22:28.09 bitrate=N/A speed=17.9x    frame=32518 fps=429 q=-0.0 size=N/A time=00:22:36.27 bitrate=N/A speed=17.9x    frame=32749 fps=429 q=-0.0 size=N/A time=00:22:45.90 bitrate=N/A speed=17.9x    frame=32967 fps=429 q=-0.0 size=N/A time=00:22:54.99 bitrate=N/A speed=17.9x    frame=33202 fps=429 q=-0.0 size=N/A time=00:23:04.80 bitrate=N/A speed=17.9x    frame=33429 fps=429 q=-0.0 size=N/A time=00:23:14.26 bitrate=N/A speed=17.9x    frame=33647 fps=429 q=-0.0 size=N/A time=00:23:23.36 bitrate=N/A speed=17.9x    frame=33875 fps=429 q=-0.0 size=N/A time=00:23:32.86 bitrate=N/A speed=17.9x    frame=34064 fps=429 q=-0.0 size=N/A time=00:23:40.75 bitrate=N/A speed=17.9x    frame=34303 fps=429 q=-0.0 size=N/A time=00:23:50.72 bitrate=N/A speed=17.9x    frame=34480 fps=428 q=-0.0 size=N/A time=00:23:58.10 bitrate=N/A speed=17.9x    [Parsed_ssim_10 @ 00000191fb25b180] SSIM Y:0.993185 (21.665540) U:0.993644 (21.968350) V:0.993794 (22.071858) All:0.993363 (21.780444)
[out#0/null @ 00000191f9940700] video:14859KiB audio:270448KiB subtitle:0KiB other streams:0KiB global headers:0KiB muxing overhead: unknown
frame=34580 fps=429 q=-0.0 Lsize=N/A time=00:24:02.27 bitrate=N/A speed=17.9x    
